<svg data-v-48faa7cd="" version="1.0" xmlns="http://www.w3.org/2000/svg" width="100%" height="100%" viewBox="0 0 340.000000 250.000000" preserveAspectRatio="xMidYMid meet" color-interpolation-filters="sRGB" class="el-tooltip" style="margin: auto;"><rect data-v-48faa7cd="" x="0" y="0" width="100%" height="100%" fill="#fff" fill-opacity="1"></rect> <rect data-v-48faa7cd="" x="0" y="0" width="100%" height="100%" fill="url(#watermark)" fill-opacity="1" class="watermarklayer"></rect> <g data-v-48faa7cd="" fill="#1A1A1A" class="initialsvg" transform="translate(97.55000305175781,78.76000213623047)"><g class="iconsvg-imagesvg" transform="translate(49.44999694824219,0)"><rect fill="#1A1A1A" fill-opacity="1" stroke="#1A1A1A" x="0" y="0" width="46" height="46"></rect> <svg filter="url(#colors1598882956)" x="4.599999999999998" y="4.599999999999998" width="36.800000000000004" height="36.800000000000004" class="imagesvg-svg"><svg xmlns="http://www.w3.org/2000/svg" viewBox="0 0 56.25 56.25"><title>q17</title><g data-name="图层 2"><g data-name="Layer 1"><path d="M54.19 54.19a6.78 6.78 0 0 0 2.06-5 6.89 6.89 0 0 0-.94-3.56l-20-17.3a7.36 7.36 0 0 0-1.88-.24A7 7 0 0 0 27.1 38.3l20.61 17.8a7.35 7.35 0 0 0 1.51.15 6.78 6.78 0 0 0 4.97-2.06z" fill="#662d91"></path><path d="M26.51 42.1a13.46 13.46 0 0 1-8.33-4 13.55 13.55 0 0 1-4.11-9.95 13.55 13.55 0 0 1 4.11-9.95 13.55 13.55 0 0 1 9.95-4.11 13.55 13.55 0 0 1 9.95 4.11 13.55 13.55 0 0 1 4.11 9.95 15.23 15.23 0 0 1-.12 1.8L53.7 40a27.52 27.52 0 0 
0 2.55-11.84A27.1 27.1 0 0 0 48 8.24 27.1 27.1 0 0 0 28.12 0 27.09 27.09 0 0 0 8.24 8.24 27.09 27.09 0 0 0 0 28.13 27.09 27.09 0 0 0 8.24 48a27.09 27.09 0 0 0 19.88 8.24 27.5 27.5 0 0 0 11.83-2.54z" fill="#1a1a1a"></path></g></g></svg></svg> <defs><filter id="colors1598882956"><feColorMatrix type="matrix" values="0 0 0 0 0.99609375  0 0 0 0 0.99609375  0 0 0 0 0.99609375  0 0 0 1 0"></feColorMatrix></filter></defs></g> <g transform="translate(0,53)"><g class="iconsvg-namesvg"><g><path transform="translate(-1.638,32.13)" d="M19.82-22.81L19.82-21.46C17.93-22.55 15.54-23.23 13.15-23.23C6.80-23.23 1.64-18.56 1.64-11.42C1.64-4.41 6.80 0.34 13.15 0.34C15.62 0.34 17.89-0.29 19.82-1.39L19.82 7.35L25.66 7.35L25.66-22.81ZM7.39-11.42C7.39-15.16 10.29-17.98 14.20-17.98C16.42-17.98 18.35-17.22 19.82-16.00L19.82-6.85C18.40-5.63 16.42-4.91 14.20-4.91C10.29-4.91 7.39-7.56 7.39-11.42ZM46.66-22.81L46.66-6.72C45.32-5.59 43.60-4.91 41.50-4.91C38.26-4.91 36.54-6.64 36.54-10.16L36.54-22.81L30.70-22.81L30.70-10.16C30.70-2.77 33.77 0.34 40.45 0.34C42.80 0.34 44.94-0.34 46.66-1.51L46.66 0L52.50 0L52.50-22.81ZM57.92 0L63.76 0L63.76-22.81L57.92-22.81ZM60.82-25.28C62.66-25.28 64.13-26.80 64.13-28.69C64.13-30.58 62.66-32.13 60.82-32.13C58.97-32.13 57.46-30.58 57.46-28.69C57.46-26.80 58.97-25.28 60.82-25.28ZM81.14-23.23C78.83-23.23 76.73-22.55 75.05-21.38L75.05-22.81L69.22-22.81L69.22 0L75.05 0L75.05-16.17C76.36-17.30 78.04-17.98 80.09-17.98C83.33-17.98 85.05-16.25 85.05-12.73L85.05 0L90.89 0L90.89-12.73C90.89-20.12 87.82-23.23 81.14-23.23ZM109.66-17.98L109.66-22.81L103.28-22.81L103.28-31.67L97.40-31.67L97.40-22.81L94.16-22.81L94.16-17.98L97.40-17.98L97.40-6.85C97.40-2.06 100.46 0.34 104.29 0.34C107.56 0.34 109.33-0.42 109.58-0.50L109.58-4.87C108.78-4.79 107.90-4.66 106.89-4.66C103.95-4.66 103.28-5.84 103.28-9.91L103.28-17.98ZM113.57 0L119.41 0L119.41-22.81L113.57-22.81ZM116.47-25.28C118.31-25.28 119.78-26.80 119.78-28.69C119.78-30.58 118.31-32.13 116.47-32.13C114.62-32.13 113.11-30.58 113.11-28.69C113.11-26.80 114.62-25.28 116.47-25.28ZM136.79-23.23C134.48-23.23 132.38-22.55 130.70-21.38L130.70-22.81L124.87-22.81L124.87 0L130.70 0L130.70-16.17C132.01-17.30 133.69-17.98 135.74-17.98C138.98-17.98 140.70-16.25 140.70-12.73L140.70 0L146.54 0L146.54-12.73C146.54-20.12 143.47-23.23 136.79-23.23Z"></path></g> <!----></g> <!----></g></g></svg>